<svg width="95" height="95" viewBox="0 0 95 95" fill="none" xmlns="http://www.w3.org/2000/svg">
<rect width="95" height="95" fill="white"/>
<path d="M95 0H0V95H95V0Z" fill="url(#paint0_linear_7_2)"/>
<path d="M42.8501 56.6C52.6089 56.6 60.5201 48.6889 60.5201 38.93C60.5201 29.1711 52.6089 21.26 42.8501 21.26C33.0912 21.26 25.1801 29.1711 25.1801 38.93C25.1801 48.6889 33.0912 56.6 42.8501 56.6Z" fill="#FF3D00"/>
<path d="M0 84.1C21.58 72.77 42.31 56.17 51.76 37.2L54.22 38.22L57.02 36.06L60.66 38.22L63.47 36.06L66.23 37.32L68.2 36.06L70.37 37.27L73.14 36.06L75.08 38.22L77.98 36.06C77.98 36.06 84.97 48.22 95 62.09V58.29C86.13 45.77 80.01 35.2 79.88 34.97L78.65 32.82L76.67 34.3L75.38 35.26L74.78 34.59L73.72 33.41L72.26 34.05L70.48 34.83L69.26 34.15L68.11 33.51L67 34.22L66.04 34.84L64.37 34.07L63.17 33.52L62.12 34.33L60.49 35.59L58.13 34.19L56.85 33.43L55.67 34.34L53.88 35.72L52.6 35.19L50.71 34.4L49.8 36.24C41.99 51.92 25.43 67.42 3.17 79.91C2.12 80.5 1.06 81.07 0.01 81.64V84.13L0 84.1Z" fill="#5D809C"/>
<path d="M95 62.08C84.96 48.22 77.98 36.05 77.98 36.05L75.08 38.21L73.14 36.05L70.37 37.26L68.2 36.05L66.23 37.31L63.47 36.05L60.66 38.21L57.02 36.05L54.22 38.21L51.76 37.19C42.31 56.17 21.58 72.77 0 84.1V95H95V62.08Z" fill="#8BBFEB"/>
<path d="M60.65 38.22L57.01 36.06L54.21 38.22L51.75 37.2C47.92 44.9 42.22 52.2 35.37 58.92V58.94L51.55 48.03L49.66 58.63L56.67 43.91L58.83 60.85L61.43 46.68L63.23 58.08L66.23 47.91L68.82 61.16L68.5 50.85L72.22 53.46L72.86 50.23L76.82 56.24L75.22 46.38L78.08 50.23L86.42 61.47L83.82 49.15C83.82 49.15 88.12 53.47 90.23 55.53C83.49 45.52 78.82 37.53 78.08 36.26L78.05 36.2L77.97 36.06L75.07 38.22L73.24 36.17L73.14 36.06L70.37 37.27L68.2 36.06L66.23 37.32L63.47 36.06L60.66 38.22H60.65Z" fill="white"/>
<path d="M5.40001 68.21C5.65001 65.81 6.09001 62.37 7.33001 60.3C8.57001 58.23 10.76 56.6 13.17 56.6C15.58 56.6 17.98 58.64 17.86 61.05C19.12 59.57 21.26 58.91 23.14 59.41C25.02 59.92 26.53 61.58 26.87 63.49C29.3 62.63 32.54 62.01 34.02 64.12C34.39 64.65 34.59 65.3 35.07 65.72C35.6 66.2 36.36 66.3 37.07 66.38C39.7 66.68 42.7 67.9 45.33 68.2C39.69 68.43 5.39001 68.2 5.39001 68.2L5.40001 68.21Z" fill="white"/>
<path d="M95 66.29C93.39 67.71 92.34 69.69 92.45 71.84C90.26 69.27 86.53 68.11 83.27 69C80.01 69.89 77.38 72.76 76.79 76.09C72.56 74.6 66.94 73.51 64.36 77.18C63.72 78.09 63.36 79.23 62.53 79.97C61.6 80.8 60.28 80.97 59.05 81.12C54.48 81.64 49.9 82.68 45.33 83.21H95V66.3V66.29Z" fill="white"/>
<defs>
<linearGradient id="paint0_linear_7_2" x1="47.62" y1="1.58" x2="47.37" y2="96.58" gradientUnits="userSpaceOnUse">
<stop stop-color="#DDF7FF"/>
<stop offset="1" stop-color="#A6E8FF"/>
</linearGradient>
</defs>
</svg>
